#!OML:ASF Y:\EmotionMaleHayes\Project 1\Capture day 1\Session 1\Male1.ASF
:FULLY-SPECIFIED
:DEGREES
33
root -24.8492 15.8747 6.69756 -165.084 -78.8195 170.772
lowerback 27.4571 5.50365 -3.43266
upperback 5.93469 5.70289 1.48033
thorax -8.99552 2.53455 1.6842
lowerneck -12.2267 -14.3409 -6.47999
upperneck 6.9078 -20.5982 17.7232
head 6.704 -9.24744 4.30633
rclavicle 1.74931e-014 -7.15625e-015
rhumerus -2.7379 14.8232 -78.1838
rradius 58.8278
rwrist -4.51013
rhand -22.3904 -31.3218
rfingers 7.12502
rthumb 4.03178 -61.2634
lclavicle 1.74931e-014 -7.15625e-015
lhumerus -34.5186 8.96005 81.233
lradius 34.5397
lwrist 8.54184
lhand -19.2438 -22.8075
lfingers 7.12502
lthumb 7.06978 7.05442
rfemur -45.176 -5.11169 -1.35009
rtibia 84.9903
rfoot -174.396 -26.8242
rtoes 25.8049
lfemur -21.466 13.4023 -18.1801
ltibia 48.5348
lfoot -27.9084 6.50435
ltoes -18.3713
34
root -24.6087 15.7605 6.71146 -166.14 -79.4837 172.43
lowerback 27.3455 5.23182 -2.82006
upperback 6.08817 5.54188 1.72518
thorax -8.72623 2.44214 1.67945
lowerneck -11.8053 -14.9254 -6.46617
upperneck 6.05112 -21.3712 18.3725
head 6.53825 -9.66106 4.41867
rclavicle 5.68524e-014 -2.70347e-014
rhumerus -6.0023 13.3365 -79.3227
rradius 58.6668
rwrist -4.31156
rhand -22.9069 -32.4378
rfingers 7.12502
rthumb 3.53303 -62.3883
lclavicle 5.68524e-014 -2.70347e-014
lhumerus -35.8777 10.6155 80.0088
lradius 31.3478
lwrist 7.19177
lhand -19.7607 -22.9761
lfingers 7.12502
lthumb 6.57087 6.902
rfemur -43.132 -6.08826 -2.36298
rtibia 81.5304
rfoot -178.162 -2.69602
rtoes 29.6955
lfemur -24.709 14.2411 -17.8546
ltibia 51.4
lfoot -28.2247 5.36718
ltoes -16.118
35
root -24.3852 15.6557 6.72595 -168.159 -80.0329 175.067
lowerback 27.0718 4.92819 -2.13486
upperback 6.26253 5.3615 1.99849
thorax -8.35002 2.34059 1.6786
lowerneck -11.541 -15.3909 -6.4677
upperneck 5.40981 -21.9965 18.9533
head 6.44692 -9.98946 4.51994
rclavicle -2.22639e-014 -1.74931e-014
rhumerus -9.12174 11.6814 -80.359
rradius 58.5275
rwrist -4.25643
rhand -24.2612 -32.4033
rfingers 7.12502
rthumb 2.22511 -62.3715
lclavicle -2.22639e-014 -1.74931e-014
lhumerus -37.4297 12.5687 78.3508
lradius 28.4454
lwrist 4.86294
lhand -19.9184 -22.396
lfingers 7.12502
lthumb 6.41863 7.48675
rfemur -40.6746 -7.00163 -3.26919
rtibia 79.6738
rfoot -181.879 21.1907
rtoes 33.2977
lfemur -27.7721 15.027 -17.4372
ltibia 53.9173
lfoot -28.2531 4.49009
ltoes -14.9663
36
root -24.1749 15.5561 6.74526 -171.685 -80.3852 179.051
lowerback 26.7966 4.63525 -1.23167
upperback 6.5661 5.22819 2.29917
thorax -7.8164 2.25202 1.56931
lowerneck -11.3102 -15.762 -6.37355
upperneck 4.70469 -22.4884 19.5343
head 6.318 -10.2595 4.62858
rclavicle -2.8625e-014 -3.18055e-014
rhumerus -11.9113 9.68572 -81.0675
rradius 57.8398
rwrist -4.5273
rhand -23.7954 -29.9817
rfingers 7.12502
rthumb 2.675 -59.9447
lclavicle -2.8625e-014 -3.18055e-014
lhumerus -39.1487 14.9727 76.2455
lradius 25.8812
lwrist 2.28316
lhand -20.6926 -22.8616
lfingers 7.12502
lthumb 5.67115 7.04255
rfemur -37.9253 -7.50675 -3.96457
rtibia 78.9322
rfoot -183.472 22.7046
rtoes 25.6836
lfemur -30.4217 15.709 -16.8525
ltibia 56.0354
lfoot -28.1092 3.99069
ltoes -14.2824
37
root -23.9703 15.4617 6.76302 -176.539 -80.5481 184.136
lowerback 26.7135 4.41475 -0.162729
upperback 6.91355 5.21076 2.66335
thorax -7.3271 2.21399 1.38665
lowerneck -11.0999 -16.1427 -6.32476
upperneck 4.1139 -22.986 20.0248
head 6.22447 -10.5299 4.71111
rclavicle -1.51076e-014 -8.74653e-015
rhumerus -14.2386 7.69746 -80.916
rradius 56.8569
rwrist -4.76711
rhand -23.8178 -31.6901
rfingers 7.12502
rthumb 2.65333 -61.6533
lclavicle -1.51076e-014 -8.74653e-015
lhumerus -41.142 17.7382 73.5579
lradius 23.9073
lwrist 0.174663
lhand -19.1584 -21.568
lfingers 7.12502
lthumb 7.15229 8.29118
rfemur -34.8161 -7.59947 -4.34757
rtibia 78.7878
rfoot -182.55 24.0003
rtoes 28.2269
lfemur -32.521 16.2594 -16.0487
ltibia 57.7283
lfoot -27.9876 3.4716
ltoes -11.8549
38
root -23.7668 15.3743 6.77704 -180.782 -80.6329 188.406
lowerback 26.8869 4.2276 0.801357
upperback 7.14903 5.21099 3.02685
thorax -7.09828 2.18835 1.23987
lowerneck -10.5072 -16.4397 -6.63293
upperneck 3.72587 -23.3613 20.5218
head 6.15971 -10.7534 4.88455
rclavicle -4.21423e-014 -5.56597e-014
rhumerus -16.2662 6.3855 -79.7929
rradius 55.4185
rwrist -5.75911
rhand -24.3298 -31.5315
rfingers 7.12502
rthumb 2.15884 -61.5003
lclavicle -4.21423e-014 -5.56597e-014
lhumerus -43.4223 20.148 70.5407
lradius 21.9225
lwrist -1.63184
lhand -17.0118 -19.6122
lfingers 7.12502
lthumb 9.22392 10.166
rfemur -31.3578 -7.68827 -4.76003
rtibia 79.2036
rfoot -181.829 26.831
rtoes 31.9844
lfemur -34.2351 16.6304 -15.4434
ltibia 59.2828
lfoot -27.9034 3.40057
ltoes -11.3374
39
root -23.5615 15.2874 6.79229 -183.308 -80.433 190.77
lowerback 27.224 4.13752 1.4309
upperback 7.30644 5.2547 3.35176
thorax -7.06287 2.1867 1.21625
lowerneck -9.05927 -16.7306 -7.88685
upperneck 2.85069 -23.6941 21.9661
head 6.05154 -11.0206 5.53299
rclavicle -3.4191e-014 -1.74931e-014
rhumerus -18.9715 4.21689 -79.1618
rradius 54.0624
rwrist -5.81453
rhand -25.5832 -30.7851
rfingers 7.12502
rthumb 0.948313 -60.7627
lclavicle -3.4191e-014 -1.74931e-014
lhumerus -46.2132 22.5704 66.916
lradius 20.0906
lwrist -3.89507
lhand -15.4772 -18.7722
lfingers 7.12502
lthumb 10.7045 10.9351
rfemur -27.9103 -7.68457 -5.43526
rtibia 79.8904
rfoot -182.656 30.0064
rtoes 37.2298
lfemur -35.6966 17.0225 -15.1108
ltibia 60.8035
lfoot -27.9149 3.38254
ltoes -11.0235
40
root -23.3612 15.1986 6.80677 -184.166 -79.7198 191.365
lowerback 27.5643 4.28527 1.66297
upperback 7.49031 5.4922 3.65242
thorax -7.03652 2.27912 1.32913
lowerneck -8.55021 -16.9454 -7.74939
upperneck 2.8118 -23.9146 21.453
head 5.89159 -11.1721 5.37578
rclavicle 4.92986e-014 -1.43125e-014
rhumerus -21.5653 2.23324 -78.3806
rradius 52.6466
rwrist -6.7795
rhand -27.2189 -31.488
rfingers 7.12502
rthumb -0.631502 -61.4668
lclavicle 4.92986e-014 -1.43125e-014
lhumerus -49.3139 25.0632 62.7214
lradius 18.614
lwrist -6.5532
lhand -14.1111 -17.6279
lfingers 7.12502
lthumb 12.0219 12.0068
rfemur -24.8328 -7.4444 -6.28046
rtibia 81.051
rfoot -189.053 46.0097
rtoes 34.9539
lfemur -36.8997 17.8728 -14.8993
ltibia 62.2155
lfoot -28.0823 3.40106
ltoes -11.1019
41
root -23.142 15.143 6.80721 -190.047 -78.9422 196.599
lowerback 28.7514 4.34604 2.73814
upperback 7.69682 5.8666 4.24809
thorax -7.34035 2.40112 1.20617
lowerneck -8.1816 -17.1499 -8.08654
upperneck 2.99989 -24.1859 21.3792
head 5.956 -11.3096 5.37603
rclavicle -7.55382e-014 -2.70347e-014
rhumerus -23.7592 0.195062 -77.2911
rradius 50.3912
rwrist -8.36622
rhand -29.3506 -31.6361
rfingers 7.12502
rthumb -2.69035 -61.5989
lclavicle -7.55382e-014 -2.70347e-014
lhumerus -52.5697 27.5252 57.8936
lradius 17.3123
lwrist -9.90221
lhand -12.8013 -16.6236
lfingers 7.12502
lthumb 13.2848 12.933
rfemur -21.5976 -7.22891 -5.58322
rtibia 82.7433
rfoot -205.05 61.245
rtoes 39.0949
lfemur -37.6177 18.9362 -13.3182
ltibia 63.6488
lfoot -28.0607 3.61092
ltoes -12.0642
42
root -22.9362 15.0785 6.82153 -194.507 -77.9086 200.566
lowerback 29.6205 4.4232 3.97914
upperback 7.85945 6.32191 4.75888
thorax -7.49699 2.56376 0.882534
lowerneck -7.38473 -17.3268 -8.65406
upperneck 2.72436 -24.3898 21.732
head 5.88911 -11.4632 5.58507
rclavicle -3.97569e-015 -1.59028e-015
rhumerus -25.892 -2.78052 -75.7539
rradius 47.8594
rwrist -8.92473
rhand -28.6791 -33.4865
rfingers 7.12502
rthumb -2.04177 -63.4565
lclavicle -3.97569e-015 -1.59028e-015
lhumerus -55.5806 28.5772 53.7896
lradius 16.4107
lwrist -12.4329
lhand -12.112 -15.5459
lfingers 7.12502
lthumb 13.949 13.9661
rfemur -18.7347 -7.08975 -5.17298
rtibia 84.6471
rfoot -242.983 71.2796
rtoes 42.3777
lfemur -38.3142 20.0929 -11.9628
ltibia 64.7679
lfoot -27.8524 4.03376
ltoes -13.0172
43
root -22.7699 15.0208 6.82971 -189.314 -77.4165 194.958
lowerback 29.7982 4.79268 3.33193
upperback 8.04819 6.57847 4.73526
thorax -7.44154 2.6845 1.12839
lowerneck -7.38774 -17.564 -8.46694
upperneck 3.16427 -24.7038 21.0413
head 5.94278 -11.5959 5.30274
rclavicle 3.10104e-014 1.90833e-014
rhumerus -27.8372 -6.67579 -73.651
rradius 44.8526
rwrist -8.62491
rhand -27.5342 -35.2678
rfingers 7.12502
rthumb -0.936026 -65.2455
lclavicle 3.10104e-014 1.90833e-014
lhumerus -58.3681 29.3351 49.6608
lradius 15.691
lwrist -15.2211
lhand -11.9288 -14.2009
lfingers 7.12502
lthumb 14.1256 15.299
rfemur -15.3272 -7.46807 -7.51564
rtibia 86.4675
rfoot -294.787 67.869
rtoes 45.9366
lfemur -38.7619 20.7309 -13.1055
ltibia 65.1602
lfoot -27.6494 4.08835
ltoes -12.3784
44
root -22.6541 14.9433 6.86114 -181.885 -76.812 186.868
lowerback 29.3717 5.1346 2.47656
upperback 8.48955 6.67445 4.5246
thorax -6.81521 2.74341 1.38276
lowerneck -7.17494 -17.7409 -8.54591
upperneck 3.24603 -24.9093 20.756
head 5.92779 -11.7048 5.21404
rclavicle 6.20208e-014 -5.08889e-014
rhumerus -30.1795 -9.90816 -71.1262
rradius 42.6691
rwrist -9.63744
rhand -28.6146 -33.0699
rfingers 7.12502
rthumb -1.9795 -63.0405
lclavicle 6.20208e-014 -5.08889e-014
lhumerus -61.0163 29.7754 45.8219
lradius 15.5247
lwrist -17.5096
lhand -11.6007 -12.8317
lfingers 7.12502
lthumb 14.4417 16.6458
rfemur -11.676 -7.89429 -11.0856
rtibia 87.0288
rfoot -325.247 56.4452
rtoes 46.5656
lfemur -38.5976 21.1672 -15.0795
ltibia 65.0836
lfoot -27.3897 3.81962
ltoes -11.5064
45
root -22.4589 14.8932 6.86376 -181.418 -75.5052 186.065
lowerback 29.7528 5.62071 2.50283
upperback 8.67572 7.27886 4.78448
thorax -6.82711 3.00712 1.43374
lowerneck -6.98032 -17.8803 -8.42972
upperneck 2.974 -25.0313 20.5925
head 5.78853 -11.7927 5.16047
rclavicle 5.80451e-014 -6.36111e-015
rhumerus -32.3251 -13.3097 -68.369
rradius 40.2674
rwrist -11.3718
rhand -28.8197 -35.7661
rfingers 7.12502
rthumb -2.17753 -65.7347
lclavicle 5.80451e-014 -6.36111e-015
lhumerus -62.9536 29.3173 43.4317
lradius 15.8664
lwrist -17.8002
lhand -11.6621 -11.701
lfingers 7.12502
lthumb 14.3826 17.7807
rfemur -9.47495 -7.75599 -11.9649
rtibia 86.2439
rfoot -336.955 41.1423
rtoes 47.138
lfemur -39.4081 22.6086 -14.9471
ltibia 66.1099
lfoot -27.1669 4.10794
ltoes -11.3568
